<svg xmlns="http://www.w3.org/2000/svg" width="30" height="26.28" viewBox="0 0 30 26.28">
  <g id="FixTd3.tif" transform="translate(-3.287 -3.628)">
    <g id="Group_4748" data-name="Group 4748" transform="translate(3.287 3.628)">
      <path id="Path_2264" data-name="Path 2264" d="M14.229,3.628h.919c.078.011.156.027.234.031A12.039,12.039,0,0,1,21.316,5.6a13.714,13.714,0,0,1,1.725,1.369,1.418,1.418,0,0,0,.558.292c.413.111.84.167,1.255.271a10.775,10.775,0,0,1,8.252,8.4c.084.406.122.821.181,1.232v1.067c-.055.387-.1.776-.169,1.16a10.551,10.551,0,0,1-1.511,3.7.838.838,0,0,0-.1.78c.291.864.565,1.733.842,2.6.246.77.5,1.537.723,2.312a.8.8,0,0,1-.7,1.123,1.689,1.689,0,0,1-.736-.181c-1.541-.766-3.072-1.549-4.6-2.333a.813.813,0,0,0-.721-.051c-.2.083-.415.146-.625.213a12.837,12.837,0,0,1-5.02.6,11.452,11.452,0,0,1-4.753-1.528,10.182,10.182,0,0,1-2.184-1.576,1.894,1.894,0,0,0-.887-.519q-1.322-.349-2.638-.721a.814.814,0,0,0-.634.053q-2.322,1.187-4.652,2.359a1.919,1.919,0,0,1-.355.145.829.829,0,0,1-1.11-.957,1.443,1.443,0,0,1,.062-.249c.506-1.592,1.006-3.185,1.527-4.772a.861.861,0,0,0-.109-.838,9.808,9.808,0,0,1-1.615-4.689,9,9,0,0,1,.266-2.952,10.049,10.049,0,0,1,3.925-5.9,11.944,11.944,0,0,1,5.7-2.282C13.547,3.692,13.888,3.663,14.229,3.628Zm17.1,24.286c-.039-.145-.06-.239-.088-.331-.365-1.143-.727-2.286-1.1-3.427a1.354,1.354,0,0,1,.2-1.287c.047-.064.1-.128.141-.193a8.41,8.41,0,0,0,1.364-7.126A9.037,9.037,0,0,0,27.71,10a10.749,10.749,0,0,0-7.861-1.5,10.156,10.156,0,0,0-6.281,3.649,8.533,8.533,0,0,0-.4,10.462,10.339,10.339,0,0,0,8.464,4.37,10.224,10.224,0,0,0,4.627-.923,1.683,1.683,0,0,1,1.553.057c1,.526,2.015,1.036,3.023,1.552ZM11.582,22.922l.034-.041c-.067-.136-.136-.272-.2-.408a9.991,9.991,0,0,1-1.01-5.989,10.838,10.838,0,0,1,3.353-6.441,12.455,12.455,0,0,1,5.833-2.991c.426-.1.855-.18,1.3-.273a.343.343,0,0,0-.046-.063c-.1-.066-.191-.134-.29-.2A10.941,10.941,0,0,0,12.258,5.2,10.065,10.065,0,0,0,6.989,8.269,8.424,8.424,0,0,0,4.71,15.105a8.053,8.053,0,0,0,1.677,4.171A1.344,1.344,0,0,1,6.6,20.606c-.346,1.045-.679,2.095-1.015,3.144-.055.171-.1.345-.155.549.082-.035.128-.052.17-.074,1.128-.577,2.258-1.151,3.383-1.735a1.527,1.527,0,0,1,1.459-.028C10.813,22.64,11.2,22.771,11.582,22.922Z" transform="translate(-3.287 -3.628)" fill="#dd2e28"/>
      <path id="Path_2265" data-name="Path 2265" d="M26.24,18.794a.867.867,0,0,1,.884-.862.884.884,0,0,1,.869.866.9.9,0,0,1-.891.888A.883.883,0,0,1,26.24,18.794Z" transform="translate(-5.104 -4.76)" fill="#dd2e28"/>
      <path id="Path_2266" data-name="Path 2266" d="M19.5,17.932a.871.871,0,0,1,.874.874.877.877,0,1,1-.874-.874Z" transform="translate(-4.501 -4.76)" fill="#dd2e28"/>
      <path id="Path_2267" data-name="Path 2267" d="M23.314,17.931a.876.876,0,0,1,.867.867.877.877,0,1,1-1.753,0A.875.875,0,0,1,23.314,17.931Z" transform="translate(-4.802 -4.76)" fill="#dd2e28"/>
    </g>
  </g>
</svg>
