<svg xmlns="http://www.w3.org/2000/svg" width="35.505" height="35.505" viewBox="0 0 35.505 35.505">
  <path id="Vector" d="M23.668,17.752a5.92,5.92,0,1,0-5.92,5.92,5.932,5.932,0,0,0,5.92-5.92Zm11.835,0c0-2.451.027-4.881-.115-7.328-.138-2.842-.782-5.36-2.864-7.443S27.922.254,25.08.117C22.633-.021,20.2,0,17.752,0s-4.876-.022-7.328.115C7.582.254,5.064.9,2.981,2.981S.254,7.582.117,10.425C-.021,12.872,0,15.305,0,17.752s-.022,4.876.115,7.328c.138,2.842.782,5.36,2.864,7.443s4.6,2.727,7.443,2.865c2.447.138,4.876.115,7.328.115s4.876.022,7.328-.115c2.842-.138,5.36-.782,7.443-2.865s2.727-4.6,2.864-7.443C35.525,22.633,35.5,20.2,35.5,17.752Zm-8.647,0a9.109,9.109,0,1,1-9.109-9.109A9.1,9.1,0,0,1,26.856,17.752Zm.373,7.354A2.127,2.127,0,1,1,25.1,27.234,2.124,2.124,0,0,1,27.229,25.107Z" transform="translate(35.505 35.505) rotate(180)" fill="#217012"/>
</svg>
