<svg xmlns="http://www.w3.org/2000/svg" width="29.989" height="30" viewBox="0 0 29.989 30">
  <g id="_1rOtZc.tif" data-name="1rOtZc.tif" transform="translate(-1.433 -0.678)">
    <g id="Group_4749" data-name="Group 4749" transform="translate(1.433 0.678)">
      <path id="Path_2268" data-name="Path 2268" d="M17.069,30.678H15.784c-.055-.008-.109-.021-.164-.023a14.3,14.3,0,0,1-3.059-.481A14.964,14.964,0,0,1,4.8,25.148a.869.869,0,0,0-.22-.137,1.016,1.016,0,0,0-.1-.273A14.819,14.819,0,0,1,1.708,12.844a14.389,14.389,0,0,1,3.677-7.3A14.754,14.754,0,0,1,14.361.83a14.423,14.423,0,0,1,5.154.176,14.793,14.793,0,0,1,9.1,5.948,14.576,14.576,0,0,1,2.719,7.128c.033.308.058.617.088.925v1.347a1.518,1.518,0,0,0-.026.163,14.219,14.219,0,0,1-.7,3.761,14.864,14.864,0,0,1-6.78,8.39,14.453,14.453,0,0,1-5.894,1.921C17.707,30.624,17.388,30.649,17.069,30.678Zm4.349-14.355H11.45a26.116,26.116,0,0,0,.8,5.845,42.794,42.794,0,0,1,8.392-.059A27.608,27.608,0,0,0,21.418,16.323Zm0-1.273a27.313,27.313,0,0,0-.638-5.182c-1.461.136-2.906.2-4.356.188s-2.891-.1-4.327-.248a25.544,25.544,0,0,0-.644,5.242ZM10.189,16.316H2.7c.007.143.007.276.021.407.038.365.069.731.127,1.093a13.7,13.7,0,0,0,2.237,5.633.191.191,0,0,0,.257.093,35.59,35.59,0,0,1,4.642-1.067c.33-.055.66-.106,1-.16A28.668,28.668,0,0,1,10.189,16.316Zm12.476-.005a28.642,28.642,0,0,1-.771,5.932c.246.032.468.059.69.09A37.381,37.381,0,0,1,27.631,23.4a.183.183,0,0,0,.242-.1A13.714,13.714,0,0,0,30.1,17.1c.028-.26.04-.523.06-.793ZM10.843,9.658c-.064-.015-.1-.025-.143-.033-1-.185-2.009-.341-3-.563-.923-.206-1.831-.48-2.743-.731-.1-.027-.145-.013-.193.075-.1.187-.221.367-.325.553a13.592,13.592,0,0,0-1.653,5.049c-.042.342-.062.687-.094,1.042h7.5A28.862,28.862,0,0,1,10.843,9.658Zm11.183.078a28.634,28.634,0,0,1,.637,5.311h7.48a.2.2,0,0,0,.01-.055c-.037-.416-.059-.834-.118-1.248a13.661,13.661,0,0,0-1.816-5.136.2.2,0,0,0-.273-.106,35.348,35.348,0,0,1-4.421,1C23.034,9.585,22.54,9.658,22.027,9.736Zm-1.553-1.1c-.009-.051-.013-.09-.023-.128a38.529,38.529,0,0,0-2.377-6.387.2.2,0,0,0-.193-.117,14.2,14.2,0,0,0-2.93.005.244.244,0,0,0-.166.12,38.442,38.442,0,0,0-2.2,5.737c-.068.231-.128.464-.194.707A42.427,42.427,0,0,0,20.473,8.641Zm-7.916,14.75c.023.082.038.144.056.206a40.572,40.572,0,0,0,2.041,5.377.588.588,0,0,0,.576.41,15.7,15.7,0,0,0,2.671-.038.244.244,0,0,0,.167-.119A39.916,39.916,0,0,0,20.1,24.091c.077-.246.147-.5.225-.755A41.9,41.9,0,0,0,12.557,23.391ZM19.426,2.257A35.3,35.3,0,0,1,21.735,8.49a32.969,32.969,0,0,0,5.647-1.123A13.854,13.854,0,0,0,19.426,2.257Zm-8.285,6.16a34.942,34.942,0,0,1,2.284-6.158A13.813,13.813,0,0,0,5.591,7.218,32.909,32.909,0,0,0,11.142,8.417ZM19.426,29.1a13.827,13.827,0,0,0,7.546-4.6,32.963,32.963,0,0,0-5.4-1.027A35.06,35.06,0,0,1,19.426,29.1ZM11.3,23.534a36.9,36.9,0,0,0-5.31,1.1A13.8,13.8,0,0,0,13.425,29.1,35.459,35.459,0,0,1,11.3,23.534Z" transform="translate(-1.433 -0.678)" fill="#dd2e28"/>
    </g>
  </g>
</svg>
