<svg xmlns="http://www.w3.org/2000/svg" width="39.133" height="35.856" viewBox="0 0 39.133 35.856">
  <g id="Frame" transform="translate(0.014)">
    <rect id="Frame-2" data-name="Frame" width="39.11" height="35.851" transform="translate(0.009)" fill="none"/>
    <path id="Vector" d="M34.042,10.185H32c-.093,0-.21-.137-.269-.24A16.081,16.081,0,0,0,25.753,4.03,15.684,15.684,0,0,0,19.4,2.041a15.96,15.96,0,1,0,12.74,23.114.357.357,0,0,1,.372-.25h1.912a17.434,17.434,0,0,1-4.084,5.935,17.423,17.423,0,0,1-11.987,5,17.928,17.928,0,1,1,15.7-25.65Z" transform="translate(-0.014 0.011)" fill="#fff"/>
    <path id="Vector-2" data-name="Vector" d="M2.224,8.746a4.633,4.633,0,0,1-1.418-2.2A4.553,4.553,0,0,1,2.043,1.768a6.781,6.781,0,0,1,8.529-.49,4.837,4.837,0,0,1,.558,7.2l-.215.225.489.436a5.307,5.307,0,0,1-.157,7.8,6.8,6.8,0,0,1-5.223,1.734,6.619,6.619,0,0,1-4.778-2.36,5.106,5.106,0,0,1,.69-7.345Zm4.3,1.959a2.687,2.687,0,0,0-1.555.426,2.171,2.171,0,0,0-.636,3.257,2.9,2.9,0,0,0,3.546.686,2.2,2.2,0,0,0,.3-3.874,2.619,2.619,0,0,0-1.658-.514Zm.049-3.291a5.969,5.969,0,0,0,.841-.181,2.115,2.115,0,0,0,1.5-1.8A1.959,1.959,0,0,0,7.745,3.36a2.521,2.521,0,0,0-2.778.206A1.96,1.96,0,0,0,4.88,6.787a2.82,2.82,0,0,0,1.7.607Z" transform="translate(13.024 8.525)" fill="#fff"/>
    <path id="Vector-3" data-name="Vector" d="M7.737,4.27h4c.259,0,.333.088.333.338V7.723H8.1c-.279,0-.347.083-.342.353v3.981H4.333V7.742H0V4.314H4.284V0H7.737Z" transform="translate(27.054 11.498)" fill="#fff"/>
    <path id="Vector-4" data-name="Vector" d="M3.585,18.168H0V0H3.585Z" transform="translate(6.381 8.8)" fill="#fff"/>
  </g>
</svg>
