<svg xmlns="http://www.w3.org/2000/svg" width="26.312" height="26.312" viewBox="0 0 26.312 26.312">
  <g id="Group_4766" data-name="Group 4766" transform="translate(-19.232 -16.761)">
    <g id="Group_4764" data-name="Group 4764" transform="translate(19.232 16.761)">
      <path id="Path_2270" data-name="Path 2270" d="M32.388,43.073A13.156,13.156,0,1,1,45.544,29.917,13.172,13.172,0,0,1,32.388,43.073Zm0-24.5a11.34,11.34,0,1,0,11.34,11.34A11.352,11.352,0,0,0,32.388,18.577Z" transform="translate(-19.232 -16.761)" fill="#dd2e28"/>
    </g>
    <g id="Group_4765" data-name="Group 4765" transform="translate(28.849 25.968)">
      <path id="Path_2271" data-name="Path 2271" d="M28.674,18.706l2.332,4.725,5.215.758-3.773,3.678.891,5.194-4.664-2.452L24.01,33.061l.891-5.194-3.773-3.678,5.215-.758Z" transform="translate(-25.135 -22.518)" fill="#dd2e28"/>
    </g>
  </g>
</svg>
