<svg xmlns="http://www.w3.org/2000/svg" width="20" height="18.942" viewBox="0 0 20 18.942">
  <path id="Vector" d="M20,9.471A9.752,9.752,0,0,1,9.99,18.942,9.741,9.741,0,0,1,0,9.471,9.741,9.741,0,0,1,9.99,0,9.752,9.752,0,0,1,20,9.471Zm-7.41-7.16a14.36,14.36,0,0,1,1.38,3.372h2.95A7.949,7.949,0,0,0,12.59,2.311ZM8.09,5.683h3.82A13.055,13.055,0,0,0,10,1.932,13.055,13.055,0,0,0,8.09,5.683ZM5.64,11.365A14.829,14.829,0,0,1,5.5,9.471a14.829,14.829,0,0,1,.14-1.894H2.26A7.418,7.418,0,0,0,2,9.471a7.418,7.418,0,0,0,.26,1.894ZM3.08,13.26a7.906,7.906,0,0,0,4.33,3.372A14.359,14.359,0,0,1,6.03,13.26H3.08ZM6.03,5.683A14.36,14.36,0,0,1,7.41,2.311,7.907,7.907,0,0,0,3.08,5.683H6.03Zm5.88,7.577H8.09A13.055,13.055,0,0,0,10,17.01,13.055,13.055,0,0,0,11.91,13.26Zm.59-3.788a13.1,13.1,0,0,0-.16-1.894H7.66A13.1,13.1,0,0,0,7.5,9.471a13.214,13.214,0,0,0,.16,1.894h4.68A13.214,13.214,0,0,0,12.5,9.471Zm.09,7.16a7.949,7.949,0,0,0,4.33-3.372H13.97A14.359,14.359,0,0,1,12.59,16.631Zm5.15-5.266A7.418,7.418,0,0,0,18,9.471a7.418,7.418,0,0,0-.26-1.894H14.36a14.829,14.829,0,0,1,.14,1.894,14.829,14.829,0,0,1-.14,1.894Z" fill="#4ab75c"/>
</svg>
