<svg xmlns="http://www.w3.org/2000/svg" width="222.656" height="59.382" viewBox="0 0 222.656 59.382">
  <path id="Path_2362" data-name="Path 2362" d="M2187.578,926.707c.581,0,.451.06.729-.3a35.54,35.54,0,0,1,3.153-3.354c1.839-1.839,3.565-3.518,5.546-5.194a30.511,30.511,0,0,1,8.77-5.277c1.275-.368,1.217,0,1.217,1.116,0,2.145-2.525,8.1-3.546,10.292l-6.919,15.388c-.955,2.042-3.006,6.545-1.28,8.579a2.515,2.515,0,0,0,2.451.957c.6,0,2.162-1.358,2.673-1.871a17.118,17.118,0,0,0,2.241-2.406l2.3-3.282c.266-.4.508-.706.749-1.11l.745-1.114c1.581-2.2,2.96-4.471,4.354-6.8.131-.218.225-.381.355-.575a2.588,2.588,0,0,0,.165-.247l.886-1.49c1.385-2.313,2.89-4.6,4.2-6.956l2.882-4.554c.279-.4.508-.7.764-1.094a14.769,14.769,0,0,1,1.623-2.1c.29-.291.959-.549.959-.9,0-.425-.729-.516-1.135-.516-2.152,0-4.345,1.746-5.8,3.188l-.319.3c-.21.221-.283.367-.52.616-.253.266-.314.406-.568.672-.394.413-.717.847-1.082,1.293l-4.488,6.252c-.857,1.418-4.022,6.579-4.737,7.45a.95.95,0,0,1-.769.47,31.538,31.538,0,0,1,2.063-5.373l.727-1.751c.607-1.394,1.323-2.893,1.845-4.352l4.026-9.606c2.232-5.894-3.16-6.563-7.217-4.737a18.516,18.516,0,0,0-3.2,1.86,47.733,47.733,0,0,0-6.017,5.343c-.831.863-1.525,1.833-2.324,2.736l-4.585,6.774a8.307,8.307,0,0,0-.911,1.671ZM2408.066,913.8a21.153,21.153,0,0,0-2.08-3.805c-.316-.46-.671-.495-1.191-.772-.431-.23-.789-.506-1.19-.772-.425-.283-.745-.489-1.159-.8l-8.627-7.07a5.578,5.578,0,0,0-3.1-.927l3.278,3.538c2.946,3.027,4.086,6.025,8.164,8.566a14.273,14.273,0,0,0,5.908,2.044Zm-2.479,16.111.119,7.524a7.969,7.969,0,0,1,.087,1.151,5.688,5.688,0,0,0,1-1.582c.33-.594.632-1.153.969-1.716.464-.779.282-1.033.435-2.25.318-2.531.445-4.38.944-7.008a27.227,27.227,0,0,1,.742-3.285,7.451,7.451,0,0,0,.35-1.2V921c-.037-.352-.138-.828-.3-1.631-.081-.4-.143-.676-.258-1.085-.12-.424-.288-.719-.371-1.075-.844.071-1.64,1.4-1.965,2.063-1.295,2.651-1.754,7.523-1.754,10.64Zm-20.345-27.161c0,5.931-10.156,7.276-14.736,7.88a54.923,54.923,0,0,1-6.951.589v.1c.523,0,15.466-.1,21.448,0h3.784a5.018,5.018,0,0,0,.5-.6,10.013,10.013,0,0,0,.846-1.322c2.136-4.2.074-7.63-3.54-9.855-.941-.58-2.059-.405-3.312-.405a3.268,3.268,0,0,1,.694.649l.619.827a3.988,3.988,0,0,1,.649,2.139Zm-9.707,45.234a11.158,11.158,0,0,1,1.814.457c.649.185,1.146.319,1.8.472a5.927,5.927,0,0,1,.8-.852c.155-.155.254-.271.415-.412a56.747,56.747,0,0,1,6.036-4.7l5.346-2.915c.378-.167.75-.3,1.183-.47,2.1-.813,5.229-1.178,6.789.765a6.723,6.723,0,0,1,1.114,3.737,6.633,6.633,0,0,0,.552-.488l1.433-1.252c1.175-.913,1.271-5.187-.345-7.642-.922-1.4-3.021-3.323-5.043-3.323-3.638,0-7.674,2.9-10.417,5.074a72.687,72.687,0,0,0-6.237,5.846c-.277.276-.328.4-.567.672l-4.672,5.036Zm-.929-24.786,2.168,1.756a6.269,6.269,0,0,1,2.375,4.234,9.263,9.263,0,0,1-1.544,5.479c-.4.688-.745,1.233-1.2,1.9-.237.344-.431.568-.675.874-1.231,1.544-5.372,6.133-7.01,6.933.108.4,1.429,1.226,1.756,1.446a10.222,10.222,0,0,0,1.563-.605,21.257,21.257,0,0,0,4.855-2.685,29.1,29.1,0,0,0,4.012-3.733l3.985-4.691c2.09-2.67,3.6-6.366,1.905-9.667a7.609,7.609,0,0,0-.636-1.017,11.425,11.425,0,0,0-.785-.97l-1.887-1.521c-2.736-1.817-2.066-1.416-4.522.229-.3.2-.5.33-.807.535-1.606,1.067-1.684,1.509-3.552,1.509Zm-71.259,29.329c0,1.006,1.578,2.234,2.8,2.365,2.343.25,4.2-.618,4.327.94l-6.392-.011a6.194,6.194,0,0,1-.734-.2v2.169h10.533c0-2.146.3-4.4-2.464-4.971-2.6-.541-4.621.8-4.662-1.019h5.061c.614,0,.778.194,1.343.207V949.84h-9.811v2.685Zm40.69.207a9.8,9.8,0,0,1,3.1-.207,39.365,39.365,0,0,1-.1,5.267h3.2a1.057,1.057,0,0,1-.207-.62v-4.647h1.653c.686,0,.893.1,1.549.1v-1.756h-9.191v1.859Zm-25.406,1.343h-1.343v-1.446h3.2c-.023,1.048-.8,1.446-1.859,1.446ZM2314.5,951.6a53.058,53.058,0,0,1-.1,6.2h3.1a3.99,3.99,0,0,1-.207-1.549c0-.8,2.806.152,4.369-.589,2.006-.949,1.828-3,1.828-4.782H2314.4a5.737,5.737,0,0,1,.1.723Zm80.244.1v5.37a5.731,5.731,0,0,1-.1.723h2.995a8.532,8.532,0,0,1-.106-1.134q0-.621,0-1.242c1.281.858,2.234,2.259,3.194,2.375h3.519a7.062,7.062,0,0,0-1.047-.914c-.218-.174-.315-.319-.532-.5l-1.594-1.4c-.405-.394-.733-.515-1.06-1a6.556,6.556,0,0,1,.9-.755c.347-.282.636-.542.961-.795s.592-.469.907-.745a8.013,8.013,0,0,0,.953-.8c-.674,0-3.516-.123-3.9.128l-2.3,1.731a7.865,7.865,0,0,1,.1-1.859h-3.1a1.675,1.675,0,0,1,.206.826Zm-68.16,2.685c0-2.3,1.613-1.859,3.614-1.859,1.434,0,2.1,3.615-.62,3.615-1.027,0-2.995.236-2.995-1.756Zm.31,3.408h4.13a3.528,3.528,0,0,0-.206-7.023h-3.408a3.529,3.529,0,0,0-.516,7.023Zm49.261-3.408c0-2.3,1.612-1.859,3.614-1.859a.982.982,0,0,1,.874.572,1.863,1.863,0,0,1-1.494,3.043c-1.027,0-2.995.236-2.995-1.756Zm.31,3.408h4.131a3.528,3.528,0,0,0-.206-7.023h-3.408a3.522,3.522,0,0,0-2.76,5.756,3.287,3.287,0,0,0,2.244,1.267Zm10.224-3.408c0-2.3,1.612-1.859,3.614-1.859a.982.982,0,0,1,.874.572,1.863,1.863,0,0,1-1.494,3.043c-1.027,0-2.995.236-2.995-1.756Zm.31,3.408h4.131a3.527,3.527,0,0,0-.206-7.023h-3.408a3.521,3.521,0,0,0-2.76,5.756,3.283,3.283,0,0,0,2.243,1.267Zm-33.253-4.544a2.707,2.707,0,0,0,2.577,1.967c.757,0,1.523,0,2.281-.009.834-.005,1.274.171,1.338.934a32.725,32.725,0,0,1-6.2-.207v1.859h9.191c0-1.656.2-3.846-1.9-4.3-1.555-.335-4.3.72-4.3-.865,1.1,0,4.655-.186,5.473.207v-1.962h-8.467v2.375Zm-15.182.826h-1.136v-1.446h2.995c0,1.06-.814,1.446-1.859,1.446Zm6.094,3.718h-3.463a1.3,1.3,0,0,1-.308-.051c-.494-.2-1.577-1.808-2.013-1.808h-1.135c-.64,0-.21,1.637-.1,1.859h-3.1a53,53,0,0,0,.1-6.2,5.732,5.732,0,0,0-.1-.723h8.882c0,1.659.219,2.4-.528,3.4a1.51,1.51,0,0,1-1.021.734c.143.538,2.377,2.432,2.788,2.788Zm21.791-2.685h3.2c.363,0,.508.541.517.929h-3.718v-.929Zm2.478-1.446h-2.478v-.929h2.995c0,.458-.087.929-.516.929Zm-5.267-1.549v4.234a11.419,11.419,0,0,1-.208,1.446h9.811c0-1.555.14-2.9-1.239-3.821a6.616,6.616,0,0,0,.413-3.1h-8.986a9.233,9.233,0,0,1,.208,1.239Zm-117.295-39.141a4.679,4.679,0,0,1,1.143-.494,6.757,6.757,0,0,0,.969-.569,8.849,8.849,0,0,0,1.666-1.394c.2,1.041.222,1.861.5,2.9a8.037,8.037,0,0,0,.459,1.3c.2.434.429.644.566.993a5.758,5.758,0,0,0-2.318.575,7.2,7.2,0,0,0-1.536,1.176c-.238-.832-.206-1.553-.514-2.458a12.728,12.728,0,0,0-.935-2.039Zm3.591-3a11.764,11.764,0,0,0-1.547,1.242c-.188.135-.34.209-.577.352a5.561,5.561,0,0,1-1.259.6c-1.786.608-.215,1.39.308,3.565.267,1.111.1,2.013.541,2.257.71.4,1.136-.475,1.662-.833,1.725-1.177,4.058-.408,2.982-2.063a6.912,6.912,0,0,1-1.019-2.7c-.145-.781-.118-2-.476-2.319-.427-.377-.615-.1-.615-.1Zm107.492,2.889h30.789l.034.191-11.844,8.155h-8.453l-9.5,23.992h-9.032l-.225-.191,9.522-23.892h-13.112l-.035-.2,11.861-8.056Zm-40.142.191h36.514l.035.2-11.88,7.956h-18.547a42.123,42.123,0,0,0-1.951,4.856H2334.3l.036.2-9.853,6.315h-5.727l-1.713,4.559h27.68l.117.1h.1q-3,7.844-3.244,7.964H2304.98l-.109-.1h-.1q12.219-31.662,12.532-32.047Zm-34.791,0h22.244a7.331,7.331,0,0,1,6.508,3.306l.406,1.161q.3,1.653-2.115,7.185c-.746,2.917-2.292,4.375-4.663,4.375l-.953.092-.307-.092.035.191c1.791.24,2.8.953,3.008,2.139.1.563-.739,2.958-2.5,7.185q-3.486,6.513-11.079,6.505h-.679l-.082.1-.117-.1h-22.435l-.107-.092h-.1l1.847-4.681c-.259.308-.5.66-.734.913-.44.476-.867.792-1.343,1.239-2.153,2.019-4.812,2.809-7.37.914a3.607,3.607,0,0,1-1.006-3.817c.213-.786.419-1.32.67-2.016,1.167-3.246,4.6-10.236,5.064-13.008.273-1.623-.11-3.3-1.771-3.33a3.834,3.834,0,0,0-2.731,1.2,2.142,2.142,0,0,0-.619.62c-.233.3-.4.4-.636.706a32.941,32.941,0,0,0-3.485,5.6c-1.177,2.353-2.189,4.716-3.2,7.234-.629,1.574-2.181,6.179-2.861,7.465a2.951,2.951,0,0,1-2.738-2.013c-.745-1.487-.5-2.622-.464-4.08a1.135,1.135,0,0,0-.14.169l-.087.12c-.051.072-.119.177-.166.247a22.418,22.418,0,0,1-2.869,3.534,8.236,8.236,0,0,1-2.01,1.6c-2.537,1.322-6.233.216-7.331-2.469-.766-1.874.083-4.38.564-6.053,1.362-4.739,3.405-8.524,5.5-12.679.208-.412.442-.8.675-1.184.246-.408.383-.693.659-1.1,1.023-1.5,4.289-1.5,5.518-.679a4.83,4.83,0,0,1-.756,1.619l-1.586,3.165c-1.649,3.3-5.109,11.989-5.586,15.482-.225,1.651.406,2.944,2.107,2.21a8.086,8.086,0,0,0,2.368-2.28c1.479-1.883,4.485-6.523,5.172-8.874.354-1.213.775-2.316,1.186-3.461.492-1.37,2.594-7.456,3.582-8.191,1.4-1.043,4.354-.743,5.494.02a15.864,15.864,0,0,1-1.328,3.526,8.79,8.79,0,0,0-.427,1.122,13.694,13.694,0,0,0,1.419-1.576,13.332,13.332,0,0,1,1.619-1.376c2.41-1.741,7.045-2.941,9.242-.654l.425.5c1.244,1.725.593,4.05-.016,5.876-.73,2.192-1.628,4.235-2.539,6.343-.512,1.185-3.464,7.17-3.14,8.444.215.847,1.156,1.028,1.935.575,1.185-.688,3.855-3.733,5.484-6.032l8.979-22.764.372-.1Zm-.669,23.992h10.1a5.117,5.117,0,0,0,4.942-3.1,9.429,9.429,0,0,0,.638-1.568h-13.989c-.174,0-.78,1.525-1.8,4.566l.018.1Zm6.088-15.928a26.609,26.609,0,0,0-1.687,4.658l.018.1,7.3.1h6.7q.307-.677.518-1.231a5.134,5.134,0,0,0,.4-1.292,2.153,2.153,0,0,0,.048-.784,2.727,2.727,0,0,0-.176-.315,2.031,2.031,0,0,0-1.594-1.125,5.72,5.72,0,0,0-1.632-.208l-.2,0-.287,0h-.48l-8.924.1Zm-62.866,11.267a8.623,8.623,0,0,1,.236-1.83l2.243-11.492a72.679,72.679,0,0,0,1.033-8.261v-1.652a2.4,2.4,0,0,0-2.375-2.479,6.654,6.654,0,0,0-2.238.756,22.41,22.41,0,0,0-3.412,2.577c-.164.181-.138.207-.315.409-.146.167-.262.25-.413.413a10.246,10.246,0,0,0-.674.875c-.23.307-.4.517-.611.834-.395.594-1.109,1.145-.612,1.213.538.074,3.837-2.947,5.487-2.947.564,0,1.042.071,1.259.7a6.083,6.083,0,0,1,.16,1.23,27.345,27.345,0,0,1-1.576,6.378l-2.852,9.645c-.608,1.793-1.087,3.766-1.638,5.59-.834,2.758-1.985,5.418-1.354,8.479.372,1.8.658,3.6,2.8,3.6,1.436,0,3.224-1.5,4.236-2.27.283-.214.437-.4.721-.622,1.956-1.5,3.264-3.863,4.626-5.907l2-3.271c.316-.595.584-1.184.921-1.764l1.35-2.574c.782-1.725,1.845-3.431,2.742-5.108.816-1.525,2.164-4.19,3.03-5.542l.742-1.22c.186-.295.33-.552.5-.84.161-.269.334-.567.51-.832.193-.291.306-.53.5-.847l.715-1.144c.12-.18.159-.239.281-.442l2.5-4.107c.2-.318.364-.494.544-.8s.3-.434.5-.737l1.08-1.6c.207-.289.372-.479.572-.771a18.281,18.281,0,0,1,5.473-5.061,15.138,15.138,0,0,1,3.532-1.735c-.209-.578-1.686-.826-2.169-.826a16.035,16.035,0,0,0-3.58.551,15.629,15.629,0,0,0-5.953,3.341,18.324,18.324,0,0,0-2,2.128l-2.333,2.83c-1.126,1.522-4.365,7.282-5.362,9.1l-8.526,14.71c-.055.1-.12.233-.182.335a6.764,6.764,0,0,1-1.269,1.842c-.588.431-.845-.22-.845-.858Z" transform="translate(-2187.578 -898.41)" fill="#fff" fill-rule="evenodd"/>
</svg>
